<svg width="28" height="28" viewBox="0 0 28 28" fill="none" xmlns="http://www.w3.org/2000/svg">
<path d="M18.375 10.5V8.75H14.875V6.125H13.125V8.75H11.375C10.9109 8.75 10.4658 8.93437 10.1376 9.26256C9.80937 9.59075 9.625 10.0359 9.625 10.5V13.125C9.625 13.5891 9.80937 14.0342 10.1376 14.3624C10.4658 14.6906 10.9109 14.875 11.375 14.875H16.625V17.5H9.625V19.25H13.125V21.875H14.875V19.25H16.625C17.0891 19.25 17.5342 19.0656 17.8624 18.7374C18.1906 18.4092 18.375 17.9641 18.375 17.5V14.875C18.375 14.4109 18.1906 13.9658 17.8624 13.6376C17.5342 13.3094 17.0891 13.125 16.625 13.125H11.375V10.5H18.375Z" fill="white"/>
<path d="M14 3.5C16.0767 3.5 18.1068 4.11581 19.8335 5.26957C21.5602 6.42332 22.906 8.0632 23.7007 9.98182C24.4955 11.9004 24.7034 14.0116 24.2983 16.0484C23.8931 18.0852 22.8931 19.9562 21.4246 21.4246C19.9562 22.8931 18.0853 23.8931 16.0485 24.2982C14.0117 24.7034 11.9005 24.4955 9.98183 23.7007C8.06321 22.906 6.42333 21.5602 5.26957 19.8335C4.11582 18.1068 3.50001 16.0767 3.50001 14C3.50809 11.2177 4.61693 8.55169 6.58431 6.5843C8.55169 4.61692 11.2177 3.50808 14 3.5ZM14 1.75C11.5772 1.75 9.20877 2.46845 7.19427 3.8145C5.17977 5.16054 3.60965 7.07373 2.68248 9.31213C1.75531 11.5505 1.51272 14.0136 1.98539 16.3899C2.45805 18.7661 3.62475 20.9489 5.33795 22.6621C7.05114 24.3752 9.23388 25.542 11.6101 26.0146C13.9864 26.4873 16.4495 26.2447 18.6879 25.3175C20.9263 24.3904 22.8395 22.8202 24.1855 20.8057C25.5316 18.7912 26.25 16.4228 26.25 14C26.2408 10.7539 24.9472 7.64347 22.6519 5.34814C20.3565 3.05282 17.2461 1.75923 14 1.75Z" fill="white"/>
</svg>
