<svg width="34" height="34" viewBox="0 0 34 34" fill="none" xmlns="http://www.w3.org/2000/svg">
<g clip-path="url(#clip0_10_73314)">
<path d="M28.3331 2.83325H13.222V7.55547H15.1109V4.72214H28.3331C28.8998 4.72214 29.2776 5.09992 29.2776 5.66659V16.0555C29.2776 16.6221 28.8998 16.9999 28.3331 16.9999H16.0553V23.611H11.0498L7.55534 26.3499V23.611H4.72201C4.15534 23.611 3.77756 23.2333 3.77756 22.6666V12.2777C3.77756 11.711 4.15534 11.3333 4.72201 11.3333H16.9998V9.44436H4.72201C3.11645 9.44436 1.88867 10.6721 1.88867 12.2777V22.6666C1.88867 24.2721 3.11645 25.4999 4.72201 25.4999H5.66645V30.3166L11.6165 25.4999H17.9442V18.8888H28.3331C29.9387 18.8888 31.1665 17.661 31.1665 16.0555V5.66659C31.1665 4.06103 29.9387 2.83325 28.3331 2.83325Z" fill="white"/>
<path d="M5.85547 21.6277H8.12214L8.6888 20.1166H11.6166L12.1832 21.6277H14.4499L11.2388 13.2222H8.97214L5.85547 21.6277ZM10.1055 15.5833L11.0499 18.5111H9.16102L10.1055 15.5833Z" fill="white"/>
<path d="M18.8887 16.0556C19.9276 16.0556 21.3442 15.7723 22.6664 15.1112C23.9887 15.7723 25.4998 16.0556 26.4442 16.0556V14.1667C26.4442 14.1667 25.4998 14.1667 24.4609 13.789C25.5942 12.6556 26.4442 10.9556 26.4442 8.50008V7.55564H23.6109V5.66675H21.722V7.55564H18.8887V9.44453H24.4609C24.272 11.1445 23.5164 12.1834 22.6664 12.8445C22.0998 12.3723 21.5331 11.7112 21.1553 10.8612H19.172C19.5498 12.089 20.1164 13.0334 20.872 13.789C19.9276 14.1667 19.0776 14.1667 18.8887 14.1667V16.0556Z" fill="white"/>
</g>
<defs>
<clipPath id="clip0_10_73314">
<rect width="34" height="34" fill="white"/>
</clipPath>
</defs>
</svg>
