<svg width="236" height="47" viewBox="0 0 236 47" fill="none" xmlns="http://www.w3.org/2000/svg">
<path d="M64.0455 19C63.858 18.4261 63.6108 17.9119 63.304 17.4574C63.0028 16.9972 62.642 16.6051 62.2216 16.2812C61.8068 15.9574 61.3352 15.7102 60.8068 15.5398C60.2784 15.3693 59.6989 15.2841 59.0682 15.2841C58.0341 15.2841 57.0938 15.5511 56.2472 16.0852C55.4006 16.6193 54.7273 17.4062 54.2273 18.446C53.7273 19.4858 53.4773 20.7614 53.4773 22.2727C53.4773 23.7841 53.7301 25.0597 54.2358 26.0994C54.7415 27.1392 55.4261 27.9261 56.2898 28.4602C57.1534 28.9943 58.125 29.2614 59.2045 29.2614C60.2045 29.2614 61.0852 29.0483 61.8466 28.6222C62.6136 28.1903 63.2102 27.5824 63.6364 26.7983C64.0682 26.0085 64.2841 25.0795 64.2841 24.0114L64.9318 24.1477H59.6818V22.2727H66.3295V24.1477C66.3295 25.5852 66.0227 26.8352 65.4091 27.8977C64.8011 28.9602 63.9602 29.7841 62.8864 30.3693C61.8182 30.9489 60.5909 31.2386 59.2045 31.2386C57.6591 31.2386 56.3011 30.875 55.1307 30.1477C53.9659 29.4205 53.0568 28.3864 52.4034 27.0455C51.7557 25.7045 51.4318 24.1136 51.4318 22.2727C51.4318 20.892 51.6165 19.6506 51.9858 18.5483C52.3608 17.4403 52.8892 16.4972 53.571 15.7188C54.2528 14.9403 55.0597 14.3438 55.9915 13.929C56.9233 13.5142 57.9489 13.3068 59.0682 13.3068C59.9886 13.3068 60.8466 13.446 61.642 13.7244C62.4432 13.9972 63.1562 14.3864 63.7812 14.892C64.4119 15.392 64.9375 15.9915 65.358 16.6903C65.7784 17.3835 66.0682 18.1534 66.2273 19H64.0455ZM70.4972 31V17.9091H72.5085V31H70.4972ZM71.5199 15.7273C71.1278 15.7273 70.7898 15.5938 70.5057 15.3267C70.2273 15.0597 70.0881 14.7386 70.0881 14.3636C70.0881 13.9886 70.2273 13.6676 70.5057 13.4006C70.7898 13.1335 71.1278 13 71.5199 13C71.9119 13 72.2472 13.1335 72.5256 13.4006C72.8097 13.6676 72.9517 13.9886 72.9517 14.3636C72.9517 14.7386 72.8097 15.0597 72.5256 15.3267C72.2472 15.5938 71.9119 15.7273 71.5199 15.7273ZM76.1925 31V17.9091H78.1357V19.8864H78.272C78.5107 19.2386 78.9425 18.7131 79.5675 18.3097C80.1925 17.9062 80.897 17.7045 81.6811 17.7045C81.8288 17.7045 82.0135 17.7074 82.2351 17.7131C82.4567 17.7187 82.6243 17.7273 82.7379 17.7386V19.7841C82.6697 19.767 82.5135 19.7415 82.2692 19.7074C82.0305 19.6676 81.7777 19.6477 81.5107 19.6477C80.8743 19.6477 80.3061 19.7812 79.8061 20.0483C79.3118 20.3097 78.9197 20.6733 78.63 21.1392C78.3459 21.5994 78.2038 22.125 78.2038 22.7159V31H76.1925ZM97.3267 19C97.1392 18.4261 96.892 17.9119 96.5852 17.4574C96.2841 16.9972 95.9233 16.6051 95.5028 16.2812C95.0881 15.9574 94.6165 15.7102 94.0881 15.5398C93.5597 15.3693 92.9801 15.2841 92.3494 15.2841C91.3153 15.2841 90.375 15.5511 89.5284 16.0852C88.6818 16.6193 88.0085 17.4062 87.5085 18.446C87.0085 19.4858 86.7585 20.7614 86.7585 22.2727C86.7585 23.7841 87.0114 25.0597 87.517 26.0994C88.0227 27.1392 88.7074 27.9261 89.571 28.4602C90.4347 28.9943 91.4063 29.2614 92.4858 29.2614C93.4858 29.2614 94.3665 29.0483 95.1278 28.6222C95.8949 28.1903 96.4915 27.5824 96.9176 26.7983C97.3494 26.0085 97.5653 25.0795 97.5653 24.0114L98.2131 24.1477H92.9631V22.2727H99.6108V24.1477C99.6108 25.5852 99.304 26.8352 98.6903 27.8977C98.0824 28.9602 97.2415 29.7841 96.1676 30.3693C95.0994 30.9489 93.8722 31.2386 92.4858 31.2386C90.9403 31.2386 89.5824 30.875 88.4119 30.1477C87.2472 29.4205 86.3381 28.3864 85.6847 27.0455C85.0369 25.7045 84.7131 24.1136 84.7131 22.2727C84.7131 20.892 84.8977 19.6506 85.267 18.5483C85.642 17.4403 86.1705 16.4972 86.8523 15.7188C87.5341 14.9403 88.3409 14.3438 89.2727 13.929C90.2045 13.5142 91.2301 13.3068 92.3494 13.3068C93.2699 13.3068 94.1278 13.446 94.9233 13.7244C95.7244 13.9972 96.4375 14.3864 97.0625 14.892C97.6932 15.392 98.2188 15.9915 98.6392 16.6903C99.0597 17.3835 99.3494 18.1534 99.5085 19H97.3267ZM103.778 31V17.9091H105.79V31H103.778ZM104.801 15.7273C104.409 15.7273 104.071 15.5938 103.787 15.3267C103.509 15.0597 103.369 14.7386 103.369 14.3636C103.369 13.9886 103.509 13.6676 103.787 13.4006C104.071 13.1335 104.409 13 104.801 13C105.193 13 105.528 13.1335 105.807 13.4006C106.091 13.6676 106.233 13.9886 106.233 14.3636C106.233 14.7386 106.091 15.0597 105.807 15.3267C105.528 15.5938 105.193 15.7273 104.801 15.7273ZM109.474 31V17.9091H111.417V19.8864H111.553C111.792 19.2386 112.224 18.7131 112.849 18.3097C113.474 17.9062 114.178 17.7045 114.962 17.7045C115.11 17.7045 115.295 17.7074 115.516 17.7131C115.738 17.7187 115.906 17.7273 116.019 17.7386V19.7841C115.951 19.767 115.795 19.7415 115.55 19.7074C115.312 19.6676 115.059 19.6477 114.792 19.6477C114.156 19.6477 113.587 19.7812 113.087 20.0483C112.593 20.3097 112.201 20.6733 111.911 21.1392C111.627 21.5994 111.485 22.125 111.485 22.7159V31H109.474ZM127.838 31H123.884L129.909 13.5455H134.665L140.682 31H136.727L132.355 17.5341H132.219L127.838 31ZM127.591 24.1392H136.932V27.0199H127.591V24.1392ZM153.564 13.5455H157.254V24.8807C157.254 26.1534 156.95 27.267 156.342 28.2216C155.74 29.1761 154.896 29.9205 153.811 30.4545C152.726 30.983 151.462 31.2472 150.018 31.2472C148.57 31.2472 147.303 30.983 146.217 30.4545C145.132 29.9205 144.288 29.1761 143.686 28.2216C143.084 27.267 142.783 26.1534 142.783 24.8807V13.5455H146.473V24.5653C146.473 25.2301 146.618 25.821 146.908 26.3381C147.203 26.8551 147.618 27.2614 148.152 27.5568C148.686 27.8523 149.308 28 150.018 28C150.734 28 151.357 27.8523 151.885 27.5568C152.419 27.2614 152.831 26.8551 153.121 26.3381C153.416 25.821 153.564 25.2301 153.564 24.5653V13.5455ZM175.691 19.6562H171.958C171.89 19.1733 171.751 18.7443 171.54 18.3693C171.33 17.9886 171.06 17.6648 170.731 17.3977C170.401 17.1307 170.021 16.9261 169.589 16.7841C169.163 16.642 168.7 16.571 168.2 16.571C167.296 16.571 166.509 16.7955 165.839 17.2443C165.168 17.6875 164.648 18.3352 164.279 19.1875C163.91 20.0341 163.725 21.0625 163.725 22.2727C163.725 23.517 163.91 24.5625 164.279 25.4091C164.654 26.2557 165.177 26.8949 165.847 27.3267C166.518 27.7585 167.293 27.9744 168.174 27.9744C168.668 27.9744 169.126 27.9091 169.546 27.7784C169.972 27.6477 170.35 27.4574 170.68 27.2074C171.009 26.9517 171.282 26.642 171.498 26.2784C171.719 25.9148 171.873 25.5 171.958 25.0341L175.691 25.0511C175.594 25.8523 175.353 26.625 174.967 27.3693C174.586 28.108 174.072 28.7699 173.424 29.3551C172.782 29.9347 172.015 30.3949 171.123 30.7358C170.237 31.071 169.234 31.2386 168.114 31.2386C166.558 31.2386 165.165 30.8864 163.938 30.1818C162.717 29.4773 161.751 28.4574 161.04 27.1222C160.336 25.7869 159.984 24.1705 159.984 22.2727C159.984 20.3693 160.342 18.75 161.058 17.4148C161.773 16.0795 162.745 15.0625 163.972 14.3636C165.2 13.6591 166.58 13.3068 168.114 13.3068C169.126 13.3068 170.063 13.4489 170.927 13.733C171.796 14.017 172.566 14.4318 173.237 14.9773C173.907 15.517 174.452 16.179 174.873 16.9631C175.299 17.7472 175.572 18.6449 175.691 19.6562ZM177.673 16.5881V13.5455H192.008V16.5881H186.664V31H183.016V16.5881H177.673ZM198.059 13.5455V31H194.369V13.5455H198.059ZM217.135 22.2727C217.135 24.1761 216.774 25.7955 216.053 27.1307C215.337 28.4659 214.359 29.4858 213.121 30.1903C211.888 30.8892 210.501 31.2386 208.962 31.2386C207.411 31.2386 206.018 30.8864 204.786 30.1818C203.553 29.4773 202.578 28.4574 201.862 27.1222C201.146 25.7869 200.788 24.1705 200.788 22.2727C200.788 20.3693 201.146 18.75 201.862 17.4148C202.578 16.0795 203.553 15.0625 204.786 14.3636C206.018 13.6591 207.411 13.3068 208.962 13.3068C210.501 13.3068 211.888 13.6591 213.121 14.3636C214.359 15.0625 215.337 16.0795 216.053 17.4148C216.774 18.75 217.135 20.3693 217.135 22.2727ZM213.393 22.2727C213.393 21.0398 213.209 20 212.839 19.1534C212.476 18.3068 211.962 17.6648 211.297 17.2273C210.632 16.7898 209.854 16.571 208.962 16.571C208.07 16.571 207.291 16.7898 206.626 17.2273C205.962 17.6648 205.445 18.3068 205.075 19.1534C204.712 20 204.53 21.0398 204.53 22.2727C204.53 23.5057 204.712 24.5455 205.075 25.392C205.445 26.2386 205.962 26.8807 206.626 27.3182C207.291 27.7557 208.07 27.9744 208.962 27.9744C209.854 27.9744 210.632 27.7557 211.297 27.3182C211.962 26.8807 212.476 26.2386 212.839 25.392C213.209 24.5455 213.393 23.5057 213.393 22.2727ZM234.468 13.5455V31H231.281L223.687 20.0142H223.559V31H219.869V13.5455H223.107L230.641 24.5227H230.795V13.5455H234.468Z" fill="white"/>
<path d="M19.3359 27.0469H31.3125V43.6641C29.5156 44.2734 27.6641 44.7266 25.7578 45.0234C23.8672 45.3203 21.75 45.4688 19.4062 45.4688C15.8438 45.4688 12.8359 44.7578 10.3828 43.3359C7.94531 41.9141 6.09375 39.8906 4.82812 37.2656C3.5625 34.625 2.92969 31.4922 2.92969 27.8672C2.92969 24.3203 3.625 21.2266 5.01562 18.5859C6.42188 15.9453 8.44531 13.8984 11.0859 12.4453C13.7422 10.9766 16.9297 10.2422 20.6484 10.2422C22.5547 10.2422 24.3594 10.4219 26.0625 10.7812C27.7812 11.125 29.375 11.6172 30.8438 12.2578L29.3203 15.7266C28.0547 15.1797 26.6562 14.7109 25.125 14.3203C23.6094 13.9297 22.0391 13.7344 20.4141 13.7344C17.6172 13.7344 15.2188 14.3125 13.2188 15.4688C11.2344 16.625 9.71094 18.2578 8.64844 20.3672C7.60156 22.4766 7.07812 24.9766 7.07812 27.8672C7.07812 30.7266 7.53906 33.2188 8.46094 35.3438C9.38281 37.4531 10.8203 39.0938 12.7734 40.2656C14.7266 41.4375 17.2422 42.0234 20.3203 42.0234C21.8672 42.0234 23.1953 41.9375 24.3047 41.7656C25.4141 41.5781 26.4219 41.3594 27.3281 41.1094V30.6094H19.3359V27.0469Z" fill="white"/>
<path d="M33.3223 26L32.7012 23.9609H29.5781L28.957 26H27L30.0234 17.3984H32.2441L35.2793 26H33.3223ZM32.2676 22.4375L31.6465 20.4453C31.6074 20.3125 31.5547 20.1426 31.4883 19.9355C31.4258 19.7246 31.3613 19.5117 31.2949 19.2969C31.2324 19.0781 31.1816 18.8887 31.1426 18.7285C31.1035 18.8887 31.0488 19.0879 30.9785 19.3262C30.9121 19.5605 30.8477 19.7832 30.7852 19.9941C30.7227 20.2051 30.6777 20.3555 30.6504 20.4453L30.0352 22.4375H32.2676Z" fill="white"/>
<path d="M24.6641 20.0469H12.6875V36.6641C14.4844 37.2734 16.3359 37.7266 18.2422 38.0234C20.1328 38.3203 22.25 38.4688 24.5938 38.4688C28.1562 38.4688 31.1641 37.7578 33.6172 36.3359C36.0547 34.9141 37.9062 32.8906 39.1719 30.2656C40.4375 27.625 41.0703 24.4922 41.0703 20.8672C41.0703 17.3203 40.375 14.2266 38.9844 11.5859C37.5781 8.94531 35.5547 6.89844 32.9141 5.44531C30.2578 3.97656 27.0703 3.24219 23.3516 3.24219C21.4453 3.24219 19.6406 3.42188 17.9375 3.78125C16.2188 4.125 14.625 4.61719 13.1562 5.25781L14.6797 8.72656C15.9453 8.17969 17.3438 7.71094 18.875 7.32031C20.3906 6.92969 21.9609 6.73438 23.5859 6.73438C26.3828 6.73438 28.7812 7.3125 30.7812 8.46875C32.7656 9.625 34.2891 11.2578 35.3516 13.3672C36.3984 15.4766 36.9219 17.9766 36.9219 20.8672C36.9219 23.7266 36.4609 26.2188 35.5391 28.3438C34.6172 30.4531 33.1797 32.0938 31.2266 33.2656C29.2734 34.4375 26.7578 35.0234 23.6797 35.0234C22.1328 35.0234 20.8047 34.9375 19.6953 34.7656C18.5859 34.5781 17.5781 34.3594 16.6719 34.1094V23.6094H24.6641V20.0469Z" fill="white"/>
</svg>
