<svg width="19" height="19" viewBox="0 0 19 19" fill="none" xmlns="http://www.w3.org/2000/svg">
<g clip-path="url(#clip0_10_72683)">
<path d="M0.632812 6.3333V3.16663C0.632813 2.49475 0.899717 1.85039 1.37481 1.3753C1.8499 0.900205 2.49426 0.633301 3.16615 0.633301H6.33281M12.6661 0.633301H15.8328C16.5047 0.633301 17.1491 0.900205 17.6241 1.3753C18.0992 1.85039 18.3661 2.49475 18.3661 3.16663V6.3333M0.632812 12.6666V15.8333C0.632813 16.5052 0.899717 17.1495 1.37481 17.6246C1.8499 18.0997 2.49426 18.3666 3.16615 18.3666H6.33281M18.3661 12.6666V15.8333C18.3661 16.5052 18.0992 17.1495 17.6241 17.6246C17.1491 18.0997 16.5047 18.3666 15.8328 18.3666H12.6661M2.53281 9.49997H16.4661" stroke="black"/>
</g>
<defs>
<clipPath id="clip0_10_72683">
<rect width="19" height="19" fill="white"/>
</clipPath>
</defs>
</svg>
