<svg width="44" height="44" viewBox="0 0 44 44" fill="none" xmlns="http://www.w3.org/2000/svg">
<path d="M38.5004 38.4999L30.5382 30.5377M30.5382 30.5377C31.9002 29.1758 32.9805 27.5589 33.7176 25.7794C34.4547 23.9999 34.8341 22.0927 34.8341 20.1666C34.8341 18.2405 34.4547 16.3332 33.7176 14.5537C32.9805 12.7742 31.9002 11.1574 30.5382 9.79539C29.1762 8.43343 27.5594 7.35306 25.7799 6.61597C24.0004 5.87889 22.0931 5.49951 20.167 5.49951C18.2409 5.49951 16.3337 5.87889 14.5542 6.61597C12.7747 7.35306 11.1578 8.43343 9.79588 9.79539C7.04527 12.546 5.5 16.2766 5.5 20.1666C5.5 24.0565 7.04527 27.7871 9.79588 30.5377C12.5465 33.2883 16.2771 34.8336 20.167 34.8336C24.057 34.8336 27.7876 33.2883 30.5382 30.5377Z" stroke="#545454" stroke-width="1.5" stroke-linecap="round" stroke-linejoin="round"/>
</svg>
