<svg width="14" height="7" viewBox="0 0 14 7" fill="none" xmlns="http://www.w3.org/2000/svg">
<path fill-rule="evenodd" clip-rule="evenodd" d="M13.7953 0.233236C14.0682 0.490959 14.0682 0.90777 13.7953 1.16486L8.01075 6.61394C7.88324 6.73592 7.72978 6.83304 7.55969 6.89941C7.3896 6.96578 7.20645 7 7.02135 7C6.83626 7 6.6531 6.96578 6.48301 6.89941C6.31292 6.83304 6.15946 6.73591 6.03195 6.61394L0.204746 1.1254C0.0745156 1.00084 0.00131764 0.835881 1.75883e-05 0.664031C-0.00128246 0.492182 0.0694129 0.326326 0.197746 0.200145C0.261121 0.137637 0.337936 0.0876231 0.423435 0.0531991C0.508934 0.0187752 0.601296 0.000674732 0.694802 1.85357e-05C0.788307 -0.000637661 0.880965 0.0161644 0.967039 0.0493843C1.05311 0.0826042 1.13077 0.131535 1.1952 0.193145L6.52683 5.21651C6.59059 5.27755 6.66734 5.32615 6.75242 5.35937C6.83749 5.39258 6.92911 5.40971 7.0217 5.40971C7.11429 5.40971 7.20591 5.39258 7.29099 5.35937C7.37607 5.32615 7.45282 5.27755 7.51658 5.21651L12.8062 0.233236C12.8699 0.172216 12.9466 0.123623 13.0316 0.090417C13.1166 0.0572106 13.2082 0.0400859 13.3007 0.0400859C13.3933 0.0400859 13.4848 0.0572106 13.5699 0.090417C13.6549 0.123623 13.7316 0.172216 13.7953 0.233236Z" fill="black"/>
</svg>
