<svg width="26" height="26" viewBox="0 0 26 26" fill="none" xmlns="http://www.w3.org/2000/svg">
<path d="M9.00227 12.45C8.50381 12.0124 8.06396 11.5951 7.69285 11.1075C4.80448 7.31364 6.86939 1.6944 11.5375 0.660569C15.247 -0.160711 18.9174 2.25155 19.5362 5.99928C19.9331 8.39982 19.1916 10.4644 17.3728 12.1147C17.315 12.1671 17.2603 12.2233 17.1978 12.2702C16.9892 12.4257 17.0588 12.4836 17.2674 12.557C17.6338 12.6867 17.9939 12.8368 18.3463 13.0009C18.9424 13.2775 19.1573 13.8018 18.9127 14.3379C18.6869 14.8325 18.1143 15.031 17.5517 14.7747C16.0509 14.091 14.4806 13.7635 12.8305 13.7729C8.1499 13.8003 3.79039 17.1885 2.62863 21.7224C2.55832 21.9974 2.46847 22.2787 2.46378 22.5585C2.45363 23.1391 2.90286 23.5384 3.54507 23.5439C4.57401 23.5533 5.60216 23.5462 6.6311 23.5462C9.5351 23.5462 12.4383 23.5454 15.3423 23.547C16.0337 23.547 16.4494 23.9182 16.4494 24.5222C16.4494 25.027 16.1158 25.4154 15.6165 25.4889C15.54 25.4998 15.4603 25.4974 15.3829 25.4974C11.3984 25.4974 7.41394 25.5053 3.42944 25.4935C1.72782 25.4889 0.337938 23.9799 0.515287 22.3194C0.61529 21.3879 0.912174 20.4963 1.28406 19.6367C2.79583 16.1453 5.35919 13.7706 9.00383 12.4492L9.00227 12.45ZM17.6877 7.16439C17.701 4.58568 15.6056 2.4641 13.0305 2.44613C10.4601 2.42894 8.32959 4.53254 8.31162 7.10578C8.29365 9.66261 10.3922 11.8045 12.9329 11.8217C15.5493 11.8397 17.6744 9.75716 17.6877 7.16439Z" fill="white"/>
<path d="M21.8269 18.349C21.8269 18.7655 21.8394 19.1827 21.8222 19.5985C21.8128 19.829 21.8995 19.8813 22.1136 19.8782C22.8941 19.8673 23.6754 19.868 24.4559 19.8766C24.9356 19.8821 25.2809 20.1189 25.4301 20.5182C25.5778 20.9136 25.4872 21.2598 25.1989 21.5559C25.0074 21.7528 24.7668 21.8286 24.4918 21.8271C23.7113 21.8224 22.93 21.8349 22.1495 21.82C21.898 21.8154 21.8159 21.8833 21.8214 22.1428C21.8378 22.9101 21.83 23.6783 21.8269 24.4464C21.8245 25.0622 21.4269 25.4951 20.8683 25.4967C20.312 25.4982 19.8893 25.0677 19.8799 24.4597C19.8682 23.7181 19.8534 22.975 19.887 22.2342C19.9034 21.8701 19.7784 21.806 19.451 21.8169C18.7229 21.8411 17.994 21.8279 17.265 21.8232C16.6572 21.8193 16.2072 21.4012 16.2119 20.8542C16.2158 20.333 16.6619 19.8884 17.233 19.8774C18.0135 19.8618 18.7948 19.8641 19.5752 19.8782C19.8135 19.8829 19.8878 19.8173 19.8831 19.5742C19.8682 18.7936 19.8667 18.0122 19.8815 17.2315C19.8932 16.6509 20.3721 16.1836 20.894 16.2086C21.437 16.2344 21.8206 16.6642 21.8277 17.255C21.8284 17.3464 21.8277 17.437 21.8277 17.5285C21.8277 17.802 21.8269 18.0762 21.8269 18.349Z" fill="white"/>
</svg>
