<svg width="31" height="28" viewBox="0 0 31 28" fill="none" xmlns="http://www.w3.org/2000/svg">
<path d="M13.5612 23.2954H3.80911C3.7406 23.2954 3.67489 23.2717 3.62645 23.2295C3.578 23.1873 3.55078 23.1301 3.55078 23.0704V21.4391C3.55078 20.5043 4.31674 19.6808 5.49732 18.981C7.60532 17.7278 11.0166 16.938 14.8529 16.938C15.4858 16.938 16.1071 16.9605 16.7142 17.0021C16.8425 17.0134 16.9721 17.0022 17.0954 16.9693C17.2187 16.9363 17.3332 16.8822 17.4322 16.8102C17.5312 16.7382 17.6127 16.6497 17.6719 16.5499C17.7311 16.4501 17.7668 16.341 17.777 16.229C17.7871 16.117 17.7715 16.0044 17.731 15.8978C17.6905 15.7911 17.626 15.6926 17.5412 15.6079C17.4564 15.5233 17.353 15.4542 17.2372 15.4048C17.1213 15.3554 16.9953 15.3267 16.8666 15.3203C16.1967 15.2735 15.5249 15.2502 14.8529 15.2505C10.5619 15.2505 6.76316 16.1854 4.40457 17.586C2.60528 18.6548 1.61328 20.0126 1.61328 21.438V23.0704C1.61362 23.5774 1.84512 24.0636 2.25688 24.422C2.66864 24.7804 3.22697 24.9818 3.80911 24.9818L13.5612 24.9829C13.8181 24.9829 14.0645 24.894 14.2462 24.7358C14.4279 24.5775 14.5299 24.3629 14.5299 24.1391C14.5299 23.9154 14.4279 23.7008 14.2462 23.5425C14.0645 23.3843 13.8181 23.2954 13.5612 23.2954ZM14.8529 1.90576C10.9314 1.90576 7.7487 4.67776 7.7487 8.09326C7.7487 11.5088 10.9314 14.2808 14.8529 14.2808C18.7744 14.2808 21.957 11.5088 21.957 8.09326C21.957 4.67776 18.7744 1.90576 14.8529 1.90576ZM14.8529 3.59326C17.7049 3.59326 20.0195 5.60926 20.0195 8.09326C20.0195 10.5773 17.7049 12.5933 14.8529 12.5933C12.0009 12.5933 9.6862 10.5773 9.6862 8.09326C9.6862 5.60926 12.0009 3.59326 14.8529 3.59326Z" fill="white"/>
<path d="M23.4476 23.234C24.3211 23.3493 25.2138 23.2677 26.0408 22.9972C26.8678 22.7266 27.6014 22.276 28.1716 21.6883C28.7418 21.1007 29.1297 20.3956 29.2981 19.6403C29.4666 18.885 29.4101 18.1047 29.134 17.3738C28.8578 16.643 28.3713 15.9859 27.7208 15.4653C27.0703 14.9448 26.2775 14.578 25.418 14.4001C24.5586 14.2222 23.6611 14.2391 22.8113 14.4491C21.9614 14.6591 21.1875 15.0552 20.5633 15.5997C19.9907 16.098 19.5606 16.7065 19.3077 17.3762C19.0548 18.0459 18.9863 18.7581 19.1076 19.4551L16.1084 22.0662C16.0182 22.1446 15.9468 22.2378 15.898 22.3403C15.8492 22.4428 15.8242 22.5526 15.8242 22.6636V25.25C15.8242 25.7157 16.2582 26.0937 16.793 26.0937H19.7625C19.8899 26.0938 20.0161 26.0719 20.1338 26.0295C20.2514 25.987 20.3584 25.9247 20.4484 25.8462L23.4476 23.234ZM23.3805 21.5015C23.2165 21.4634 23.0439 21.4636 22.88 21.5019C22.7161 21.5402 22.5667 21.6153 22.4466 21.7197L19.3621 24.4062H17.7617V23.0123L20.8462 20.3258C20.9661 20.2213 21.0524 20.0911 21.0964 19.9483C21.1403 19.8056 21.1405 19.6553 21.0968 19.5125C20.9144 18.9143 20.9633 18.2804 21.2359 17.7088C21.5085 17.1372 21.9897 16.6597 22.605 16.3501C23.2204 16.0405 23.9356 15.9161 24.6403 15.996C25.345 16.0759 25.9999 16.3557 26.5037 16.7922C27.0049 17.231 27.3262 17.8014 27.4179 18.4152C27.5096 19.0289 27.3668 19.6519 27.0113 20.1879C26.6558 20.7238 26.1076 21.1429 25.4514 21.3803C24.7951 21.6178 24.0673 21.6603 23.3805 21.5015Z" fill="white"/>
<path d="M23.2263 19.6447C23.0912 19.5323 22.9833 19.3975 22.9089 19.2483C22.8345 19.099 22.7951 18.9383 22.7931 18.7756C22.791 18.6129 22.8263 18.4515 22.8969 18.3009C22.9675 18.1503 23.0719 18.0134 23.2041 17.8985C23.3363 17.7835 23.4935 17.6927 23.6666 17.6314C23.8396 17.5701 24.025 17.5396 24.2118 17.5416C24.3986 17.5436 24.583 17.5781 24.7543 17.6431C24.9255 17.7081 25.0801 17.8023 25.209 17.9201C25.4615 18.1508 25.6003 18.4585 25.5958 18.7772C25.5913 19.096 25.4437 19.4005 25.1848 19.6258C24.9258 19.8511 24.5759 19.9792 24.2099 19.9827C23.844 19.9862 23.4909 19.8649 23.2263 19.6447Z" fill="white"/>
</svg>
